PathFileType	4	(X/Y/Z)	C:/Users/beibeiliu/ov580/test_trc/User3\sequence.12_training_dense_right.trc
DataRate	CameraRate	NumFrames	NumMarkers	Units	OrigDataRate	OrigDataStartFrame	OrigNumFrames
120	120	10	19	mm	120	63	250
Frame#	Time	ThumbCMC			ThumbMCP			ThumbIP			ThumbTip			IndexMCP			IndexPIP			IndexTip			MiddleMCP			MiddlePIP			MiddleTip			RingMCP			RingPIP			RingTip			PinkyMCP			PinkyPIP			PinkyTip			BackHand1			BackHand2			BackHand3	
		X0	Y0	Z0	X1	Y1	Z1	X2	Y2	Z2	X3	Y3	Z3	X4	Y4	Z4	X5	Y5	Z5	X6	Y6	Z6	X7	Y7	Z7	X8	Y8	Z8	X9	Y9	Z9	X10	Y10	Z10	X11	Y11	Z11	X12	Y12	Z12	X13	Y13	Z13	X14	Y14	Z14	X15	Y15	Z15	X16	Y16	Z16	X17	Y17	Z17	X18	Y18	Z18	
62	0.516667	166.049	17.4869	18.7277	148.74	25.2628	-3.6955	125.035	21.5276	-27.553	107.976	19.5345	-37.9969	119.52	-11.7712	-33.9473	101.131	-17.9607	-50.2727	83.2147	-23.0195	-70.9287	109.474	-33.5299	-37.3144	92.6578	-33.132	-54.0296	68.9151	-41.713	-75.5419	108.92	-44.6087	-19.4024	92.145	-46.3702	-40.1796	72.1164	-54.5702	-57.4513	112.504	-55.5601	1.29748	98.0521	-57.3028	-17.1345	82.7443	-60.1279	-35.3113	151.377	-41.848	9.99375	173.91	-44.5996	30.0339	167.462	-13.2856	4.37916	
63	0.525	166.087	17.8005	18.1294	150.698	24.9361	-4.89838	129.928	25.1375	-27.7337	109.891	23.0543	-41.9269	119.031	-9.79314	-34.6265	101.196	-11.1046	-57.0238	81.4204	-21.3403	-69.8555	109.288	-29.1926	-34.973	92.2484	-29.4907	-51.7925	67.0883	-37.468	-76.3832	106.697	-41.3073	-19.2028	89.301	-44.3572	-36.266	70.823	-48.2729	-53.3082	108.56	-51.5011	0.181385	95.9154	-50.2634	-14.5584	80.8142	-56.714	-32.8535	148.529	-42.3603	6.25269	172.096	-42.7694	30.1812	167.846	-10.7404	4.14677	
64	0.533333	170.5	16.6675	23.0771	154.909	25.1596	-8.40365	135.617	27.3447	-27.7646	115.917	22.6273	-42.939	123.978	-4.57739	-38.2377	102.38	-9.24478	-59.6772	84.3852	-17.4681	-72.9473	111.383	-23.413	-38.7583	91.5465	-27.7055	-53.9828	71.9141	-28.8531	-77.9454	106.367	-37.3668	-22.0545	87.0613	-41.8149	-40.9231	72.7046	-41.6095	-55.5241	106.989	-46.2351	-2.97423	92.0083	-47.7477	-17.984	78.8144	-53.9367	-33.1144	146.436	-42.6139	6.4487	170.034	-44.6876	29.046	169.697	-13.7297	6.28187	
65	0.541667	173.597	14.8636	19.278	159.678	20.9744	-6.54371	142.865	23.7098	-30.8237	124.548	22.6569	-44.4782	127.319	-6.3276	-39.7946	105.862	-12.4493	-58.5315	91.4298	-16.2855	-74.5452	110.985	-27.6989	-41.4125	95.5383	-26.0187	-56.5913	77.749	-25.9546	-80.5544	106.821	-34.0239	-27.0884	91.5555	-35.3255	-42.8475	74.1178	-37.395	-62.2041	105.68	-43.6738	-6.4497	89.3386	-45.7282	-21.2471	79.2135	-47.1973	-35.7654	148.321	-43.1091	8.09218	169.415	-43.9247	30.4639	170.492	-19.0304	2.89221	
66	0.55	177.831	12.7394	16.4109	165.921	19.818	-8.572	148.282	21.0338	-36.8811	131.111	20.3216	-49.1187	128.284	-8.87252	-44.0513	115.27	-9.31145	-63.0343	96.3193	-15.9194	-83.4595	117.224	-25.5633	-42.1884	100.1	-25.2875	-61.376	80.7766	-28.2704	-87.2612	107.134	-35.6259	-30.8803	92.4167	-36.3979	-47.7837	78.8845	-36.5554	-64.9063	107.123	-43.2525	-8.02742	94.7052	-42.704	-20.3418	78.701	-48.1903	-39.381	145.744	-46.0589	4.48642	165.633	-46.8073	28.7756	173.442	-19.994	4.64255	
67	0.558333	182.834	11.213	14.2688	171.308	17.6266	-12.2992	152.866	17.2128	-37.4731	139.117	21.8421	-53.4189	133.745	-10.1784	-47.0415	119.458	-10.2841	-68.2568	102.849	-17.8275	-85.729	120.058	-23.5599	-49.8618	105.081	-25.6333	-64.9734	89.0599	-28.34	-89.6368	113.112	-36.1191	-29.6892	99.4621	-35.1518	-48.2	83.7416	-37.3733	-68.6352	108.059	-44.4173	-9.306	96.2636	-41.7791	-29.3487	84.0207	-47.3071	-43.0467	149.989	-44.6627	4.95106	167.893	-50.3439	29.745	176.366	-20.3714	-0.377169	
68	0.566667	186.003	9.52325	13.4088	177.517	15.966	-12.1366	162.879	20.9825	-42.5586	147.99	21.9239	-58.1027	141.786	-10.642	-48.351	127.77	-14.1213	-68.8575	114.85	-16.6284	-91.266	124.775	-28.0783	-52.814	111.748	-26.5438	-69.4331	97.3636	-29.3626	-96.29	116.649	-37.2728	-34.931	106.07	-34.6479	-53.671	92.3211	-38.0529	-78.0708	112.571	-42.1617	-15.0322	102.963	-40.0588	-29.0401	90.7305	-44.9552	-51.8252	154.155	-43.8497	2.17767	167.816	-49.6674	25.162	177.325	-25.2054	-0.00512298	
69	0.575	187.369	4.37072	10.2063	183.967	13.2739	-14.6732	169.701	15.9636	-45.7558	157.158	20.111	-59.5679	149.921	-11.2956	-57.0581	138.006	-14.1895	-75.9332	126.277	-19.1583	-96.0088	135.181	-27.0794	-55.8718	122.859	-25.6902	-76.2285	105.964	-32.0933	-101.501	124.655	-36.1417	-38.4127	114.481	-33.6851	-58.0423	98.8733	-41.1301	-80.7981	119.237	-39.8432	-21.6368	106.503	-43.1883	-33.482	96.9765	-45.707	-53.2012	154.88	-46.5697	-1.85879	174.668	-47.7442	24.5298	185.672	-23.1459	1.07136	
70	0.583333	193.551	4.33765	11.3279	189.614	11.5012	-18.0866	180.718	16.4275	-48.5149	166.843	17.7831	-65.5852	156.176	-15.6522	-59.0177	147.979	-16.7503	-80.1613	136.334	-22.3432	-104.433	141.693	-30.5423	-57.0548	134.139	-26.3664	-78.9933	119.291	-33.418	-104.435	133.029	-34.106	-43.5459	123.825	-34.9151	-63.0248	113.247	-38.3772	-86.8211	125.748	-40.13	-26.3833	113.785	-41.6482	-43.3376	109.035	-43.7996	-59.2003	158.09	-45.5426	-4.34099	173.845	-48.5464	20.2719	189.711	-27.3295	-2.86079	
71	0.591667	199.661	2.74088	8.87112	201.751	11.3555	-19.4581	186.714	10.8542	-48.4446	175.598	14.2477	-70.2953	168.805	-16.59	-60.1162	156.394	-21.8078	-82.6195	150.837	-25.0483	-103.754	152.542	-29.5262	-64.3179	144.709	-29.7293	-83.1188	133.841	-35.5233	-114.464	140.136	-35.7232	-48.8744	129.389	-38.5443	-66.2798	122.266	-42.0017	-94.2004	130.769	-40.6346	-26.8499	124.927	-40.4426	-45.1262	117.072	-44.5009	-63.1681	165.704	-48.1348	-3.79644	179.9	-48.9809	24.1794	195.385	-26.4629	0.989357	
